<mxfile host="Electron" modified="2024-09-05T13:16:31.686Z" agent="Mozilla/5.0 (Windows NT 10.0; Win64; x64) AppleWebKit/537.36 (KHTML, like Gecko) draw.io/24.2.5 Chrome/120.0.6099.109 Electron/28.1.0 Safari/537.36" etag="ObfLQDQlwWklaGAIlDaa" version="24.2.5" type="device">
  <diagram id="_Ks05DfC0NFa8EsFKxHR" name="show_page(MainViewクラス)">
    <mxGraphModel dx="1050" dy="621" grid="1" gridSize="10" guides="1" tooltips="1" connect="1" arrows="1" fold="1" page="1" pageScale="1" pageWidth="827" pageHeight="1169" math="0" shadow="0">
      <root>
        <mxCell id="0" />
        <mxCell id="1" parent="0" />
        <mxCell id="urqCKB8OjLkegGVaL-lm-1" value="&lt;b&gt;&lt;font style=&quot;font-size: 18px;&quot;&gt;ページ表示・切替メソッド&lt;/font&gt;&lt;/b&gt;&lt;div&gt;&lt;font style=&quot;font-size: 14px;&quot;&gt;クラス：MainViewクラス&lt;/font&gt;&lt;/div&gt;&lt;div&gt;&lt;div style=&quot;font-size: 14px;&quot;&gt;継承：ctk.CTk &amp;gt; ウィンドウクラス&lt;/div&gt;&lt;/div&gt;&lt;div style=&quot;font-size: 14px;&quot;&gt;&lt;br&gt;&lt;/div&gt;&lt;div style=&quot;font-size: 14px;&quot;&gt;目的&lt;/div&gt;&lt;div style=&quot;font-size: 14px;&quot;&gt;ページ遷移を行うメソッド&lt;/div&gt;" style="text;html=1;align=left;verticalAlign=top;whiteSpace=wrap;rounded=0;fillColor=#f5f5f5;fontColor=#333333;strokeColor=#666666;" parent="1" vertex="1">
          <mxGeometry x="20" y="30" width="290" height="130" as="geometry" />
        </mxCell>
        <mxCell id="jg_A2M14E6mrpv6N6p9t-1" value="開始" style="strokeWidth=2;html=1;shape=mxgraph.flowchart.start_1;whiteSpace=wrap;" parent="1" vertex="1">
          <mxGeometry x="350" y="300" width="70" height="40" as="geometry" />
        </mxCell>
        <mxCell id="jg_A2M14E6mrpv6N6p9t-2" style="rounded=0;orthogonalLoop=1;jettySize=auto;html=1;entryX=1.02;entryY=0.26;entryDx=0;entryDy=0;endArrow=none;endFill=0;entryPerimeter=0;" parent="1" source="jg_A2M14E6mrpv6N6p9t-3" target="jg_A2M14E6mrpv6N6p9t-1" edge="1">
          <mxGeometry relative="1" as="geometry">
            <mxPoint x="425" y="330" as="targetPoint" />
          </mxGeometry>
        </mxCell>
        <mxCell id="jg_A2M14E6mrpv6N6p9t-3" value="&lt;div&gt;初期化メソッド&lt;/div&gt;&lt;div&gt;※インスタンス生成時に実行されます。&lt;/div&gt;&lt;div&gt;引数１：self &amp;gt;インスタンス自身&lt;/div&gt;&lt;div&gt;引数2：ページ名 str型＞表示したいページ名&lt;/div&gt;&lt;div&gt;&lt;br&gt;&lt;/div&gt;" style="text;html=1;align=left;verticalAlign=top;whiteSpace=wrap;rounded=0;fillColor=#f5f5f5;fontColor=#333333;strokeColor=#666666;" parent="1" vertex="1">
          <mxGeometry x="490" y="230" width="305" height="70" as="geometry" />
        </mxCell>
        <mxCell id="jg_A2M14E6mrpv6N6p9t-6" value="" style="edgeStyle=orthogonalEdgeStyle;rounded=0;orthogonalLoop=1;jettySize=auto;html=1;" parent="1" edge="1">
          <mxGeometry relative="1" as="geometry">
            <mxPoint x="385" y="340" as="sourcePoint" />
            <mxPoint x="385" y="420" as="targetPoint" />
          </mxGeometry>
        </mxCell>
        <mxCell id="jg_A2M14E6mrpv6N6p9t-7" value="" style="edgeStyle=orthogonalEdgeStyle;rounded=0;orthogonalLoop=1;jettySize=auto;html=1;" parent="1" edge="1">
          <mxGeometry relative="1" as="geometry">
            <mxPoint x="385" y="480" as="sourcePoint" />
            <mxPoint x="385" y="560" as="targetPoint" />
          </mxGeometry>
        </mxCell>
        <mxCell id="jg_A2M14E6mrpv6N6p9t-11" value="__init__メソッドで作成した&lt;div&gt;ページクラス格納用の辞書型配列から&lt;/div&gt;&lt;div&gt;引数２をキーにインスタンスを取得&lt;/div&gt;" style="rounded=1;whiteSpace=wrap;html=1;" parent="1" vertex="1">
          <mxGeometry x="272.5" y="420" width="225" height="60" as="geometry" />
        </mxCell>
        <mxCell id="1yRM1yAwGfQ0_SUAc873-6" value="" style="edgeStyle=orthogonalEdgeStyle;rounded=0;orthogonalLoop=1;jettySize=auto;html=1;" parent="1" source="1yRM1yAwGfQ0_SUAc873-2" target="1yRM1yAwGfQ0_SUAc873-5" edge="1">
          <mxGeometry relative="1" as="geometry" />
        </mxCell>
        <mxCell id="1yRM1yAwGfQ0_SUAc873-2" value="取得したインスタンス&lt;div&gt;.tkraise()メソッド&lt;/div&gt;" style="shape=process;whiteSpace=wrap;html=1;backgroundOutline=1;" parent="1" vertex="1">
          <mxGeometry x="302.5" y="560" width="165" height="60" as="geometry" />
        </mxCell>
        <mxCell id="1yRM1yAwGfQ0_SUAc873-3" style="rounded=0;orthogonalLoop=1;jettySize=auto;html=1;entryX=1;entryY=0.25;entryDx=0;entryDy=0;exitX=-0.006;exitY=0.387;exitDx=0;exitDy=0;exitPerimeter=0;endArrow=none;endFill=0;" parent="1" source="1yRM1yAwGfQ0_SUAc873-4" edge="1">
          <mxGeometry relative="1" as="geometry">
            <mxPoint x="466.5" y="585" as="targetPoint" />
          </mxGeometry>
        </mxCell>
        <mxCell id="1yRM1yAwGfQ0_SUAc873-4" value="取り出したページインスタンスを表示するメソッド" style="text;html=1;align=left;verticalAlign=top;whiteSpace=wrap;rounded=0;fillColor=#f5f5f5;fontColor=#333333;strokeColor=#666666;" parent="1" vertex="1">
          <mxGeometry x="513.5" y="590" width="305" height="30" as="geometry" />
        </mxCell>
        <mxCell id="1yRM1yAwGfQ0_SUAc873-5" value="終了" style="strokeWidth=2;html=1;shape=mxgraph.flowchart.start_1;whiteSpace=wrap;" parent="1" vertex="1">
          <mxGeometry x="350" y="700" width="70" height="40" as="geometry" />
        </mxCell>
      </root>
    </mxGraphModel>
  </diagram>
</mxfile>
